<svg width="32" height="32" viewBox="0 0 32 32" fill="none" xmlns="http://www.w3.org/2000/svg">
  <!-- Background circle -->
  <circle cx="16" cy="16" r="16" fill="#2563eb"/>

  <!-- Coffee cup -->
  <path d="M8 12h12v8c0 2.21-1.79 4-4 4h-4c-2.21 0-4-1.79-4-4v-8z" fill="white"/>
  <path d="M20 14v4c1.1 0 2-.9 2-2s-.9-2-2-2z" fill="white"/>

  <!-- Steam -->
  <path d="M11 8c0-1 0-2 1-2s1 1 1 2M14 8c0-1 0-2 1-2s1 1 1 2M17 8c0-1 0-2 1-2s1 1 1 2"
        stroke="white" stroke-width="1.5" stroke-linecap="round" fill="none"/>
</svg>